<?xml version="1.0" encoding="UTF-8" standalone="no"?>
<svg
   xmlns:dc="http://purl.org/dc/elements/1.1/"
   xmlns:cc="http://creativecommons.org/ns#"
   xmlns:rdf="http://www.w3.org/1999/02/22-rdf-syntax-ns#"
   xmlns:svg="http://www.w3.org/2000/svg"
   xmlns="http://www.w3.org/2000/svg"
   id="svg4"
   version="1.1"
   viewBox="0 0 89.706863 89.706879"
   role="img"
   class="svg-inline--fa fa-user fa-w-14"
   data-icon="user"
   data-prefix="fas"
   focusable="false"
   aria-hidden="true"
   width="89.706863"
   height="89.706863">
  <metadata
     id="metadata10">
    <rdf:RDF>
      <cc:Work
         rdf:about="">
        <dc:format>image/svg+xml</dc:format>
        <dc:type
           rdf:resource="http://purl.org/dc/dcmitype/StillImage" />
        <dc:title />
      </cc:Work>
    </rdf:RDF>
  </metadata>
  <defs
     id="defs8">
    <rect
       id="rect837"
       height="236.53226"
       width="203.04633"
       y="172.245"
       x="495.81403" />
    <rect
       x="495.81403"
       y="172.245"
       width="203.04633"
       height="236.53226"
       id="rect837-2" />
    <rect
       x="495.81403"
       y="172.245"
       width="203.04633"
       height="236.53226"
       id="rect2351" />
    <mask
       maskUnits="userSpaceOnUse"
       id="mask1430">
      <g
         transform="matrix(-1.9254658,0,0,1.9254658,3.9113843,-15.999269)"
         aria-label="n"
         id="g1434"
         style="font-style:normal;font-weight:normal;font-size:40px;line-height:25px;font-family:Sans;letter-spacing:0px;word-spacing:0px;fill:#ffffff;fill-opacity:1;stroke:#ffffff;stroke-width:0.519354px;stroke-linecap:butt;stroke-linejoin:miter;stroke-opacity:1"
         mask="none">
        <path
           d="m -32.632834,56.976435 v 19.148177 c 0,0.796445 0.273778,1.468445 0.821333,2.016001 0.547556,0.547556 1.219557,0.821334 2.016001,0.821334 0.846223,0 1.543112,-0.273778 2.090668,-0.821334 0.547556,-0.547556 0.821334,-1.219556 0.821334,-2.016001 V 56.976435 c 0,-3.086224 -0.474392,-13.198488 5.620047,-13.198488 6.094439,0 5.620047,10.112264 5.620047,13.198488 v 19.148177 c 0,0.796445 0.273778,1.468445 0.821334,2.016001 0.547556,0.547556 1.244445,0.821334 2.090668,0.821334 0.796444,0 1.468445,-0.273778 2.016001,-0.821334 0.547555,-0.547556 0.8213333,-1.219556 0.8213333,-2.016001 V 56.976435 c 0,-4.08178 0.2671714,-18.911762 -11.3693833,-18.911762 -11.636555,0 -11.369383,14.829982 -11.369383,18.911762 z"
           style="font-style:normal;font-variant:normal;font-weight:normal;font-stretch:normal;font-size:74.6667px;font-family:Comfortaa;-inkscape-font-specification:'Comfortaa, Normal';font-variant-ligatures:normal;font-variant-caps:normal;font-variant-numeric:normal;font-variant-east-asian:normal;fill:#ffffff;fill-opacity:1;stroke:#ffffff;stroke-width:0.519354px;stroke-opacity:1"
           id="path1432" />
      </g>
    </mask>
  </defs>
  <g
     transform="translate(-492.60728,-186.00529)"
     id="text835"
     style="font-style:normal;font-weight:normal;font-size:40px;line-height:25px;font-family:Sans;letter-spacing:0px;word-spacing:0px;white-space:pre;shape-inside:url(#rect837-2);fill:#000000;fill-opacity:1;stroke:none;stroke-width:1px;stroke-linecap:butt;stroke-linejoin:miter;stroke-opacity:1" />
  <g
     transform="translate(-551.06361,-182.68864)"
     style="font-style:normal;font-weight:normal;font-size:40px;line-height:25px;font-family:Sans;letter-spacing:0px;word-spacing:0px;fill:#000000;fill-opacity:1;stroke:none;stroke-width:1px;stroke-linecap:butt;stroke-linejoin:miter;stroke-opacity:1"
     id="text923"
     aria-label="n" />
  <g
     aria-label="n"
     id="g956"
     style="font-style:normal;font-weight:normal;font-size:40px;line-height:25px;font-family:Sans;letter-spacing:0px;word-spacing:0px;fill:#039be5;fill-opacity:1;stroke:none;stroke-width:1px;stroke-linecap:butt;stroke-linejoin:miter;stroke-opacity:1"
     transform="translate(48.403347,-3.28284)" />
  <g
     id="text909"
     style="font-size:40px;line-height:27.7778px;font-family:Sans;letter-spacing:0px;word-spacing:0px;fill:none;stroke:#000000;stroke-width:1px;stroke-linecap:butt;stroke-linejoin:miter;stroke-opacity:1" />
  <path
     style="display:inline;fill:#fafafa;stroke-width:1.315"
     id="path6540"
     cx="68.84848"
     cy="58.139736"
     r="57.678253"
     d="" />
  <ellipse
     ry="44.853432"
     rx="44.8535"
     cy="44.853432"
     cx="44.853432"
     id="ellipse1687"
     style="fill:#ffffff;fill-opacity:1;stroke:none;stroke-width:2;stroke-miterlimit:4;stroke-dasharray:none;stroke-opacity:1" />
  <ellipse
     ry="44.853432"
     rx="44.8535"
     cy="44.853432"
     cx="44.853352"
     id="ellipse1691"
     style="fill:#ffffff;fill-opacity:1;stroke:none;stroke-width:2;stroke-miterlimit:4;stroke-dasharray:none;stroke-opacity:1" />
  <ellipse
     ry="44.853432"
     rx="44.8535"
     cy="44.853432"
     cx="44.853352"
     id="ellipse1695"
     style="fill:#039be5;fill-opacity:1;stroke:none;stroke-width:2;stroke-miterlimit:4;stroke-dasharray:none;stroke-opacity:1"
     mask="url(#mask1430)" />
  <path
     d="M 57.892277,34.890716 A 13.038702,13.038702 0 0 1 44.853579,47.929413 13.038702,13.038702 0 0 1 31.814883,34.890716 13.038702,13.038702 0 0 1 44.853579,21.852 13.038702,13.038702 0 0 1 57.892277,34.890716"
     style="fill:none;stroke:#039be5;stroke-width:11.07;stroke-miterlimit:4;stroke-dasharray:none;stroke-opacity:1"
     id="path846"
     mask="none"
     transform="translate(-1.4829834e-4)" />
</svg>
