<?xml version="1.0" encoding="UTF-8" standalone="no"?>
<svg
   xmlns:dc="http://purl.org/dc/elements/1.1/"
   xmlns:cc="http://creativecommons.org/ns#"
   xmlns:rdf="http://www.w3.org/1999/02/22-rdf-syntax-ns#"
   xmlns:svg="http://www.w3.org/2000/svg"
   xmlns="http://www.w3.org/2000/svg"
   height="89.706863"
   width="89.706863"
   aria-hidden="true"
   focusable="false"
   data-prefix="fas"
   data-icon="user"
   class="svg-inline--fa fa-user fa-w-14"
   role="img"
   viewBox="0 0 89.706863 89.706879"
   version="1.1"
   id="svg4">
  <metadata
     id="metadata10">
    <rdf:RDF>
      <cc:Work
         rdf:about="">
        <dc:format>image/svg+xml</dc:format>
        <dc:type
           rdf:resource="http://purl.org/dc/dcmitype/StillImage" />
        <dc:title />
      </cc:Work>
    </rdf:RDF>
  </metadata>
  <defs
     id="defs8">
    <rect
       x="495.81403"
       y="172.245"
       width="203.04633"
       height="236.53226"
       id="rect837" />
    <mask
       maskUnits="userSpaceOnUse"
       id="mask863">
      <g
         transform="matrix(-1.2280626,0,0,1.2502918,0.80274159,-4.6385951)"
         aria-label="n"
         id="g867"
         style="font-style:normal;font-weight:normal;font-size:40px;line-height:25px;font-family:Sans;letter-spacing:0px;word-spacing:0px;fill:#ffffff;fill-opacity:1;stroke:#ffffff;stroke-width:0.807018px;stroke-linecap:butt;stroke-linejoin:miter;stroke-opacity:1"
         mask="none">
        <path
           d="m -32.632834,56.976435 v 19.148177 c 0,0.796445 0.273778,1.468445 0.821333,2.016001 0.547556,0.547556 1.219557,0.821334 2.016001,0.821334 0.846223,0 1.543112,-0.273778 2.090668,-0.821334 0.547556,-0.547556 0.821334,-1.219556 0.821334,-2.016001 V 56.976435 c 0,-3.086224 -0.474392,-13.198488 5.620047,-13.198488 6.094439,0 5.620047,10.112264 5.620047,13.198488 v 19.148177 c 0,0.796445 0.273778,1.468445 0.821334,2.016001 0.547556,0.547556 1.244445,0.821334 2.090668,0.821334 0.796444,0 1.468445,-0.273778 2.016001,-0.821334 0.547555,-0.547556 0.8213333,-1.219556 0.8213333,-2.016001 V 56.976435 c 0,-4.08178 0.2671714,-18.911762 -11.3693833,-18.911762 -11.636555,0 -11.369383,14.829982 -11.369383,18.911762 z"
           style="font-style:normal;font-variant:normal;font-weight:normal;font-stretch:normal;font-size:74.6667px;font-family:Comfortaa;-inkscape-font-specification:'Comfortaa, Normal';font-variant-ligatures:normal;font-variant-caps:normal;font-variant-numeric:normal;font-variant-east-asian:normal;fill:#ffffff;fill-opacity:1;stroke:#ffffff;stroke-width:0.807018px;stroke-opacity:1"
           id="path865" />
      </g>
    </mask>
  </defs>
  <g
     transform="translate(-501.10215,-186.00529)"
     id="text835"
     style="font-style:normal;font-weight:normal;font-size:40px;line-height:25px;font-family:Sans;letter-spacing:0px;word-spacing:0px;white-space:pre;shape-inside:url(#rect837);fill:#000000;fill-opacity:1;stroke:none;stroke-width:1px;stroke-linecap:butt;stroke-linejoin:miter;stroke-opacity:1" />
  <g
     transform="translate(-559.55848,-182.68864)"
     style="font-style:normal;font-weight:normal;font-size:40px;line-height:25px;font-family:Sans;letter-spacing:0px;word-spacing:0px;fill:#000000;fill-opacity:1;stroke:none;stroke-width:1px;stroke-linecap:butt;stroke-linejoin:miter;stroke-opacity:1"
     id="text923"
     aria-label="n" />
  <g
     aria-label="n"
     id="g956"
     style="font-style:normal;font-weight:normal;font-size:40px;line-height:25px;font-family:Sans;letter-spacing:0px;word-spacing:0px;fill:#039be5;fill-opacity:1;stroke:none;stroke-width:1px;stroke-linecap:butt;stroke-linejoin:miter;stroke-opacity:1"
     transform="translate(39.908478,-3.2828382)" />
  <g
     id="text909"
     style="font-size:40px;line-height:27.7778px;font-family:Sans;letter-spacing:0px;word-spacing:0px;fill:none;stroke:#000000;stroke-width:1px;stroke-linecap:butt;stroke-linejoin:miter;stroke-opacity:1" />
  <path
     style="display:inline;fill:#fafafa;stroke-width:1.315"
     id="path6540"
     cx="68.84848"
     cy="58.139736"
     r="57.678253"
     d="" />
  <ellipse
     ry="44.853432"
     rx="44.8535"
     cy="44.853432"
     cx="44.853432"
     id="ellipse1687"
     style="fill:#ffffff;fill-opacity:1;stroke:none;stroke-width:2;stroke-miterlimit:4;stroke-dasharray:none;stroke-opacity:1" />
  <ellipse
     ry="44.853432"
     rx="44.8535"
     cy="44.853432"
     cx="44.8535"
     id="ellipse1695"
     style="fill:#039be5;fill-opacity:1;stroke:none;stroke-width:1.002;stroke-miterlimit:4;stroke-dasharray:none;stroke-opacity:1"
     mask="url(#mask863)" />
  <path
     d="m 35.231677,28.406565 a 8.3160879,8.4666169 0 0 1 -8.316085,8.466613 8.3160879,8.4666169 0 0 1 -8.316085,-8.466613 8.3160879,8.4666169 0 0 1 8.316085,-8.466625 8.3160879,8.4666169 0 0 1 8.316085,8.466625"
     style="fill:none;stroke:#039be5;stroke-width:7.204;stroke-miterlimit:4;stroke-dasharray:none;stroke-opacity:1"
     id="path846"
     mask="none" />
  <g
     aria-label="D"
     transform="scale(1.0008862,0.99911459)"
     id="text1031"
     style="font-size:58.0025px;line-height:40.2796px;font-family:Sans;letter-spacing:0px;word-spacing:0px;fill:none;stroke:#000000;stroke-width:1.16489;stroke-linecap:butt;stroke-linejoin:miter;stroke-miterlimit:4;stroke-dasharray:none;stroke-opacity:1">
    <path
       d="m 49.100071,74.436317 q -0.986043,0 -1.62407,-0.638027 -0.638028,-0.638028 -0.638028,-1.62407 V 31.398463 q 0,-0.986042 0.638028,-1.624069 0.638027,-0.638028 1.62407,-0.638028 h 10.44045 q 4.988214,0 9.106392,1.682072 4.17618,1.62407 7.19231,4.698203 3.01613,3.01613 4.6402,7.134307 1.682072,4.118178 1.682072,9.106392 0,4.988215 -1.682072,9.164395 -1.62407,4.118178 -4.6402,7.19231 -3.01613,3.01613 -7.19231,4.698202 -4.118178,1.62407 -9.106392,1.62407 z m 2.262097,-4.060174 h 8.178353 q 5.336229,0 9.396404,-2.378103 4.118178,-2.436105 6.438278,-6.612285 2.3201,-4.234182 2.3201,-9.628415 0,-5.394232 -2.3201,-9.570412 -2.3201,-4.234182 -6.438278,-6.612285 -4.060175,-2.378102 -9.396404,-2.378102 h -8.178353 z"
       style="font-style:normal;font-variant:normal;font-weight:normal;font-stretch:normal;font-size:58.0025px;font-family:Comfortaa;-inkscape-font-specification:'Comfortaa, Normal';font-variant-ligatures:normal;font-variant-caps:normal;font-variant-numeric:normal;font-variant-east-asian:normal;fill:#000000;stroke-width:1.16489;stroke-miterlimit:4;stroke-dasharray:none"
       id="path24" />
  </g>
</svg>
